<svg width="36" height="36" viewBox="0 0 36 36" fill="none" xmlns="http://www.w3.org/2000/svg">
  <defs>
    <linearGradient id="g" x1="6" y1="4" x2="30" y2="36" gradientUnits="userSpaceOnUse">
      <stop offset="0%" stop-color="#fb923c"/>
      <stop offset="55%" stop-color="#f97316"/>
      <stop offset="100%" stop-color="#ea580c"/>
    </linearGradient>
    <linearGradient id="hi" x1="0" y1="0" x2="0" y2="1">
      <stop offset="0%" stop-color="white" stop-opacity="0.18"/>
      <stop offset="100%" stop-color="white" stop-opacity="0"/>
    </linearGradient>
  </defs>
  <rect width="36" height="36" rx="9" fill="#18181b"/>
  <path d="M18 4 L31 9 L31 21 Q31 31.5 18 35 Q5 31.5 5 21 L5 9 Z" fill="url(#g)"/>
  <path d="M18 4 L31 9 L31 18 Q26 8 18 6 Q11 8 7 14 L5 9 Z" fill="url(#hi)"/>
  <path d="M10.5 31.5 L17.3 14.5" stroke="white" stroke-width="2" stroke-linecap="round" stroke-opacity="0.95"/>
  <path d="M25.5 31.5 L18.7 14.5" stroke="white" stroke-width="2" stroke-linecap="round" stroke-opacity="0.95"/>
  <circle cx="18" cy="29" r="1.1" fill="white" fill-opacity="0.55"/>
  <circle cx="18" cy="24" r="0.9" fill="white" fill-opacity="0.45"/>
  <circle cx="18" cy="19.5" r="0.7" fill="white" fill-opacity="0.35"/>
  <circle cx="18" cy="13" r="2.2" fill="white" fill-opacity="0.95"/>
  <circle cx="18" cy="13" r="4" stroke="white" stroke-width="1" stroke-opacity="0.25" fill="none"/>
</svg>
