<svg width="200" height="48" viewBox="0 0 200 48" fill="none" xmlns="http://www.w3.org/2000/svg">
  <defs>
    <linearGradient id="shield-g" x1="6" y1="5" x2="34" y2="46" gradientUnits="userSpaceOnUse">
      <stop offset="0%" stop-color="#fb923c"/>
      <stop offset="55%" stop-color="#f97316"/>
      <stop offset="100%" stop-color="#ea580c"/>
    </linearGradient>
    <linearGradient id="shield-hi" x1="0" y1="0" x2="0" y2="1">
      <stop offset="0%" stop-color="white" stop-opacity="0.18"/>
      <stop offset="100%" stop-color="white" stop-opacity="0"/>
    </linearGradient>
    <linearGradient id="text-g" x1="0" y1="0" x2="1" y2="0">
      <stop offset="0%" stop-color="#f97316"/>
      <stop offset="50%" stop-color="#fb923c"/>
      <stop offset="100%" stop-color="#fbbf24"/>
    </linearGradient>
  </defs>

  <!-- Icon: 48x48 -->
  <rect width="48" height="48" rx="12" fill="#18181b"/>
  <path d="M24 5 L41 11.5 L41 28 Q41 41.5 24 46 Q7 41.5 7 28 L7 11.5 Z" fill="url(#shield-g)"/>
  <path d="M24 5 L41 11.5 L41 24 Q34 10 24 8 Q14 10 9 18 L7 11.5 Z" fill="url(#shield-hi)"/>
  <path d="M14 42 L23 19" stroke="white" stroke-width="2.5" stroke-linecap="round" stroke-opacity="0.95"/>
  <path d="M34 42 L25 19" stroke="white" stroke-width="2.5" stroke-linecap="round" stroke-opacity="0.95"/>
  <circle cx="24" cy="38.5" r="1.4" fill="white" fill-opacity="0.55"/>
  <circle cx="24" cy="31.5" r="1.1" fill="white" fill-opacity="0.45"/>
  <circle cx="24" cy="25.5" r="0.9" fill="white" fill-opacity="0.35"/>
  <circle cx="24" cy="17" r="3" fill="white" fill-opacity="0.95"/>
  <circle cx="24" cy="17" r="5.5" stroke="white" stroke-width="1.2" stroke-opacity="0.22" fill="none"/>

  <!-- Wordmark -->
  <text x="58" y="32" font-family="-apple-system, BlinkMacSystemFont, 'Segoe UI', sans-serif" font-weight="800" font-size="24" letter-spacing="-0.5" fill="white">Convoy</text>
  <text x="150" y="32" font-family="-apple-system, BlinkMacSystemFont, 'Segoe UI', sans-serif" font-weight="800" font-size="24" letter-spacing="-0.5" fill="url(#text-g)">Link</text>
</svg>
